<svg xmlns="http://www.w3.org/2000/svg" width="14" height="13" viewBox="0 0 14 13"><defs><linearGradient id="a" x1="50%" x2="50%" y1="0%" y2="100%"><stop offset="0%" stop-color="#242433"/><stop offset="100%" stop-color="#242433"/></linearGradient></defs><path fill="url(#a)" fill-rule="evenodd" d="M4.072 8.567l.51-.729C5.985 5.843 7.533 3.973 9.33 2.33c1.074-.983 2.313-1.713 3.642-2.284.198-.085.386-.051.57.114-.063.07-.12.139-.183.203-.92.946-1.86 1.874-2.758 2.841C9.423 4.47 8.378 5.851 7.429 7.301c-.589.899-1.113 1.84-1.667 2.763-.55.917-1.1 1.835-1.652 2.75-.156.259-.354.243-.512-.02-.57-.95-.959-1.986-1.417-2.99-.264-.577-.581-1.13-.895-1.681-.255-.45-.64-.686-1.17-.628-.018.002-.038-.005-.057-.01C.053 7.484.05 7.477 0 7.44c.053-.128.09-.285.174-.408.521-.771 1.583-.954 2.355-.42.556.384.925.93 1.274 1.496.084.136.162.276.27.46"/></svg>